# xmcd CD database file
#
# Track frame offsets:
#	150
#	12802
#	29911
#	44150
#	61465
#	79903
#	93009
#	104784
#	125828
#	150521
#	179398
#	222474
#	241233
#	256734
#	283902
#	296460
#	310317
#	324639
#
# Disc length: 4482 seconds
#
# Revision: 0
# Processed by: cddbd v1.5.2PL0 Copyright (c) Steve Scherf et al.
# Submitted via: CDex 1.51
#
DISCID=12118012
DTITLE=Various Artist - AURA JAZZ STYLISH TIME
DYEAR=2008
DGENRE=Jazz
TTITLE0=AMAPOLA
TTITLE1=OPEN MIND
TTITLE2=THE NEARNESS OF YOU
TTITLE3=SOMEONE TO WATCH OVER ME
TTITLE4=WALTZ FOR DABBY
TTITLE5=IT'S THE TIME
TTITLE6=FLY ME TO THE MOON
TTITLE7=CANTALOOP
TTITLE8=CHITTLINS CON CARNE
TTITLE9=RIVER
TTITLE10=MOANIN'
TTITLE11=TIME AFTER TIME
TTITLE12=BEYOND THE SEA
TTITLE13=NUOVO CINEMA PARADISO
TTITLE14=MY FAVORITE TIHINGS
TTITLE15=BUT NOT FOR ME
TTITLE16=LA VIE EN ROSE
TTITLE17=LOVE
EXTD=YEAR: 2008
EXTT0=
EXTT1=
EXTT2=
EXTT3=
EXTT4=
EXTT5=
EXTT6=
EXTT7=
EXTT8=
EXTT9=
EXTT10=
EXTT11=
EXTT12=
EXTT13=
EXTT14=
EXTT15=
EXTT16=
EXTT17=
PLAYORDER=
